<!DOCTYPE svg PUBLIC "-//W3C//DTD SVG 20010904//EN" "http://www.w3.org/TR/2001/REC-SVG-20010904/DTD/svg10.dtd">
<svg version="1.0" xmlns="http://www.w3.org/2000/svg" width="181px" height="181px" viewBox="0 0 1810 1810" preserveAspectRatio="xMidYMid meet">
<g id="layer1" fill="#aea291" stroke="none">
 <path d="M837 1694 c-9 -10 22 -66 33 -59 6 4 4 18 -5 36 -17 31 -18 32 -28 23z"/>
 <path d="M965 1511 c-3 -6 4 -15 15 -21 11 -6 20 -8 20 -4 0 3 7 1 15 -6 8 -6 19 -9 25 -5 13 8 3 26 -13 23 -7 -1 -22 3 -34 10 -13 7 -24 8 -28 3z"/>
 <path d="M1205 1461 c-7 -13 17 -24 40 -19 9 1 16 8 16 13 0 14 -48 19 -56 6z"/>
 <path d="M1405 1430 c-3 -5 -4 -11 -1 -11 3 -1 9 -2 14 -3 4 -1 30 -14 59 -29 29 -15 54 -23 58 -17 3 5 -17 21 -45 35 -27 14 -50 22 -50 19 0 -4 -6 -1 -14 5 -10 8 -16 9 -21 1z"/>
 </g>
<g id="layer2" fill="#7c6444" stroke="none">
 <path d="M836 1682 c-8 -13 72 -134 84 -127 5 3 -9 33 -31 67 -47 73 -45 72 -53 60z"/>
 <path d="M352 1500 c-59 -35 -125 -84 -158 -117 -62 -63 -121 -175 -152 -289 -22 -78 -29 -209 -11 -199 6 4 9 22 7 40 -1 19 1 37 5 41 4 4 7 15 7 25 0 32 51 182 88 256 42 87 98 144 189 196 l67 38 -50 -53 c-145 -155 -204 -294 -204 -480 0 -115 14 -171 56 -215 37 -39 56 -36 53 11 -1 17 1 38 4 46 3 8 12 35 20 60 l14 45 13 -30 c7 -16 28 -63 46 -102 28 -63 31 -73 16 -74 -9 -1 -21 -2 -27 -4 -5 -1 -14 -3 -18 -3 -5 -1 1 -15 12 -31 12 -16 21 -36 21 -44 0 -9 5 -19 10 -22 16 -10 22 19 11 48 -9 24 -8 27 10 27 11 0 22 7 25 15 8 21 96 -103 124 -175 21 -53 21 -54 3 -79 -11 -14 -43 -38 -73 -54 -49 -24 -56 -26 -69 -12 -19 18 -30 123 -17 146 11 20 0 53 -15 43 -6 -3 -9 -17 -6 -30 2 -14 0 -27 -4 -30 -17 -10 -10 -98 10 -130 23 -38 57 -41 115 -12 119 61 120 130 3 302 -50 74 -68 132 -68 220 0 78 -5 92 -25 75 -14 -11 -19 -60 -8 -71 3 -4 7 -30 9 -60 1 -29 6 -62 10 -73 6 -14 5 -17 -3 -10 -20 19 -91 204 -80 211 5 3 23 26 38 51 24 37 29 41 32 23 6 -38 23 -26 26 19 7 89 -19 89 -64 -2 -31 -61 -40 -56 -18 9 18 53 44 101 83 151 31 39 44 42 36 10 -8 -31 12 -217 29 -264 13 -39 30 -43 32 -8 1 11 5 28 9 38 9 20 -1 51 -14 43 -14 -9 -21 33 -21 142 0 131 -11 140 -83 61 -57 -61 -103 -151 -113 -218 -3 -25 -17 -77 -30 -115 -14 -38 -23 -74 -21 -81 3 -6 -1 -19 -9 -30 -13 -17 -15 -16 -31 21 -43 98 -22 319 43 447 46 92 68 121 166 217 69 67 89 100 60 100 -4 0 -53 -27 -110 -60z"/>
 <path d="M1365 1431 c-6 -10 13 -26 21 -18 7 7 117 -48 133 -66 7 -9 10 -21 7 -26 -7 -11 -41 5 -110 53 -42 29 -52 31 -61 16 -3 -6 4 -14 17 -19 13 -5 45 -25 71 -45 26 -20 61 -38 77 -39 16 -2 38 -11 48 -20 27 -24 35 -9 12 21 -11 13 -20 30 -20 36 0 32 -125 116 -150 101 -5 -3 -11 -1 -15 5 -8 13 -22 13 -30 1z"/>
 <path d="M1253 1385 c-12 -8 -31 -31 -43 -49 -30 -50 -77 -76 -136 -76 -72 0 -121 -17 -165 -57 -56 -51 -79 -101 -87 -190 l-7 -76 -33 81 c-51 124 -139 195 -201 161 -27 -15 -59 -62 -64 -95 -1 -10 -6 -25 -10 -31 -5 -7 -5 -18 -2 -23 8 -13 26 -2 23 13 -1 7 9 33 21 60 28 58 58 69 110 41 29 -15 46 -38 87 -122 28 -56 57 -109 64 -117 23 -28 37 2 43 96 10 155 64 214 209 226 81 7 116 26 166 93 19 25 43 48 54 52 11 4 16 12 13 18 -8 14 -17 13 -42 -5z"/>
 <path d="M1397 1294 c-15 -8 -25 -19 -22 -24 6 -10 61 10 64 25 4 15 -12 15 -42 -1z"/>
 <path d="M1052 928 c-7 -7 -12 -9 -12 -5 0 4 -9 3 -20 -3 -11 -6 -18 -15 -15 -21 4 -5 15 -4 28 3 12 6 36 12 52 12 17 1 29 5 28 10 -4 15 -47 18 -61 4z"/>
 <path d="M1096 865 c-20 -16 -25 -25 -16 -30 7 -4 22 3 37 18 33 32 17 42 -21 12z"/>
 <path d="M995 870 c-9 -14 44 -45 56 -33 7 7 1 15 -20 26 -17 8 -33 11 -36 7z"/>
 <path d="M22 766 c2 -42 0 -55 -10 -51 -19 7 -14 -20 8 -40 18 -16 20 -16 26 -1 3 9 3 24 -1 34 -4 9 -7 36 -6 58 1 23 -3 45 -9 49 -9 5 -11 -8 -8 -49z"/>
 <path d="M1131 656 c-6 -7 -7 -16 -3 -20 4 -4 1 -6 -7 -4 -17 4 -56 -58 -42 -66 6 -4 17 7 26 24 9 18 22 30 32 28 10 -2 17 5 18 20 2 28 -9 36 -24 18z"/>
 </g>
<g id="layer3" fill="#493b27" stroke="none">
 <path d="M484 1779 c31 -157 161 -276 340 -310 61 -11 163 -12 170 -1 3 5 -9 22 -25 38 -47 44 -109 140 -146 224 l-32 75 -157 3 -157 3 7 -32z"/>
 <path d="M1423 1300 c-39 -13 -85 -66 -81 -94 2 -13 9 -19 18 -17 8 2 49 8 90 13 123 15 145 21 145 42 0 45 -100 78 -172 56z"/>
 <path d="M1010 909 l-34 -21 27 -24 c41 -35 88 -32 121 7 21 24 24 34 15 45 -17 21 -89 17 -129 -7z"/>
 <path d="M1337 902 c-28 -31 -21 -74 17 -111 19 -18 36 -29 39 -24 8 14 -13 127 -27 141 -10 10 -15 9 -29 -6z"/>
 </g>
<g id="layer4" fill="#d8a866" stroke="none">
 <path d="M1559 1204 c-24 -24 -45 -40 -47 -34 -2 6 -15 16 -29 21 -19 7 -32 5 -58 -11 -43 -26 -71 -25 -106 4 -37 32 -60 25 -107 -31 -69 -84 -80 -93 -111 -93 -40 0 -48 -17 -20 -46 29 -30 79 -32 126 -3 l33 21 -20 -54 c-50 -127 -68 -157 -104 -174 -28 -14 -42 -15 -78 -6 -53 14 -68 1 -32 -27 l27 -21 -35 0 c-41 0 -52 -8 -37 -27 14 -16 13 -16 -29 -4 -27 8 -34 7 -39 -6 -10 -26 41 -63 88 -63 46 0 48 -13 6 -44 l-27 -20 -118 28 c-64 16 -156 43 -205 61 -48 18 -90 28 -93 23 -15 -23 42 -144 96 -202 l39 -43 -92 -60 c-151 -99 -180 -109 -226 -77 -34 24 -51 74 -51 150 l0 66 -67 65 c-104 99 -164 146 -176 134 -16 -16 7 -78 55 -152 23 -35 61 -108 84 -162 51 -116 73 -148 118 -176 46 -29 102 -27 220 9 55 17 122 30 150 30 48 0 41 -3 -109 -55 -343 -118 -461 -132 -558 -63 l-27 19 0 -49 c0 -43 3 -50 28 -62 74 -34 139 -50 209 -50 42 0 73 -4 73 -10 0 -6 46 -10 117 -10 l117 0 187 94 c237 119 261 125 399 96 120 -24 156 -21 193 18 45 47 57 91 57 212 0 80 7 142 25 224 18 85 24 139 22 213 -2 90 0 101 25 143 14 25 51 65 82 89 30 24 62 54 71 67 16 25 20 79 7 88 -5 3 -29 -15 -53 -40z m-185 -372 c5 -33 3 -43 -6 -40 -26 9 -39 53 -26 89 10 28 12 30 18 13 4 -10 10 -39 14 -62z m-224 -187 c0 -17 -30 -73 -49 -89 -29 -26 -27 -4 4 51 22 37 45 56 45 38z m139 -332 c-6 -23 -18 -44 -27 -48 -18 -7 -56 17 -78 50 -9 14 -26 25 -38 26 -16 1 -13 3 10 10 17 5 55 35 85 66 l54 58 3 -60 c2 -33 -2 -79 -9 -102z m-444 53 c22 -8 35 -15 28 -15 -22 -2 -122 40 -145 60 -19 16 -14 15 27 -5 28 -14 68 -32 90 -40z"/>
 <path d="M0 336 c0 -51 1 -53 25 -48 14 2 28 9 31 14 6 9 -41 88 -51 88 -3 0 -5 -24 -5 -54z"/>
 </g>
<g id="layer5" fill="#6f593b" stroke="none">
 <path d="M0 1246 c0 -512 1 -564 16 -562 14 2 16 25 19 167 3 186 17 255 85 394 57 118 110 167 285 265 l60 34 -80 -80 c-99 -98 -123 -129 -169 -221 -82 -161 -89 -410 -14 -490 27 -28 35 -23 43 29 4 22 15 64 25 92 17 49 18 50 28 26 33 -83 66 -158 78 -175 20 -29 17 -38 -11 -33 -34 7 -38 -3 -19 -41 13 -26 15 -52 9 -145 l-7 -113 28 -31 29 -32 45 21 c46 21 94 60 111 91 13 25 -20 103 -85 197 -72 106 -81 147 -77 370 2 86 -11 96 -42 35 -14 -27 -33 -58 -42 -69 -16 -19 -16 -18 -10 25 3 25 19 72 34 105 27 57 94 145 110 145 5 0 11 -57 13 -127 5 -124 19 -190 37 -179 4 3 11 25 14 49 10 73 46 157 72 169 62 28 130 -29 181 -152 38 -92 60 -124 68 -99 2 8 7 50 9 95 9 159 84 234 233 234 60 0 117 35 153 93 25 41 37 47 100 47 36 0 58 -7 87 -26 75 -52 98 -62 122 -53 18 7 21 12 13 26 -32 60 -112 97 -252 118 -57 8 -138 20 -179 27 -41 6 -90 17 -109 24 -33 14 -56 11 -46 -7 8 -12 -78 -12 -141 0 -141 27 -237 93 -285 196 -16 33 -32 75 -35 93 l-6 32 -249 0 -249 0 0 -564z"/>
 <path d="M780 1782 c0 -4 7 -18 16 -30 8 -12 13 -22 9 -22 -3 0 6 -23 20 -50 14 -28 30 -48 35 -45 10 6 -15 72 -38 99 -10 10 -16 20 -14 22 8 13 0 34 -13 34 -8 0 -15 -3 -15 -8z"/>
 <path d="M1015 860 c-3 -5 -4 -11 -1 -11 13 -3 22 -6 39 -14 11 -4 23 -3 29 3 8 8 7 13 -6 18 -9 4 -20 4 -23 0 -3 -3 -12 -1 -19 5 -8 7 -14 7 -19 -1z"/>
 <path d="M1337 813 c-4 -3 0 -14 9 -24 13 -14 21 -16 36 -8 10 5 16 14 13 20 -4 5 -11 7 -16 3 -5 -3 -16 -1 -23 5 -7 6 -16 8 -19 4z"/>
 <path d="M1121 641 c-28 -28 -63 -99 -55 -112 9 -15 63 39 81 80 18 43 4 62 -26 32z"/>
 <path d="M1225 414 l-67 -67 20 -35 c23 -41 63 -68 86 -59 26 10 48 75 50 145 3 93 -10 96 -89 16z"/>
 </g>
<g id="layer6" fill="#a48558" stroke="none">
 <path d="M340 1480 c-151 -85 -217 -173 -286 -380 -26 -79 -28 -97 -29 -246 0 -125 -3 -160 -12 -157 -10 4 -13 -31 -13 -155 0 -144 2 -165 20 -195 l21 -35 -21 -5 c-18 -5 -20 -13 -20 -75 0 -66 2 -72 27 -90 61 -43 161 -53 272 -27 59 14 444 140 465 153 5 3 1 11 -9 19 -30 21 -104 15 -211 -17 -115 -35 -177 -38 -217 -11 -38 25 -53 48 -98 154 -22 50 -57 118 -79 151 -42 66 -74 135 -66 143 7 7 47 -26 134 -108 l72 -69 0 -65 c0 -79 16 -122 59 -158 54 -45 86 -36 241 67 84 56 100 64 100 46 0 -17 92 -64 173 -87 81 -23 204 -32 260 -18 23 6 34 1 72 -34 24 -22 48 -41 53 -41 37 0 89 107 64 132 -12 12 -11 14 -31 -59 -8 -29 -17 -43 -28 -43 -19 0 -73 48 -73 65 0 6 20 31 45 55 56 55 48 75 -9 22 -35 -32 -55 -41 -109 -52 -157 -29 -376 46 -469 161 -26 32 -81 149 -74 156 2 2 33 -8 69 -22 70 -26 294 -85 323 -85 20 0 107 87 100 99 -3 4 -29 6 -58 4 -38 -3 -59 0 -73 11 -19 16 -18 16 20 14 33 -3 40 0 39 15 -1 13 6 17 30 17 42 0 50 9 29 32 -15 17 -15 18 14 12 36 -7 82 14 111 51 11 13 34 62 53 107 18 46 39 93 46 105 22 33 1 35 -48 2 -49 -32 -108 -39 -129 -14 -11 13 -8 15 15 15 28 0 64 31 117 102 35 47 61 53 97 22 35 -29 63 -30 106 -4 37 23 69 17 60 -10 -12 -39 14 -26 74 34 57 58 62 67 56 94 -7 34 -89 117 -106 106 -7 -4 -2 -15 12 -30 14 -15 20 -30 16 -44 -4 -16 1 -23 19 -30 14 -6 24 -18 24 -28 0 -17 -11 -20 -86 -26 -47 -4 -97 -11 -110 -16 -20 -8 -24 -6 -24 10 0 37 36 62 104 72 36 5 27 25 -28 61 -103 68 -156 64 -216 -18 -49 -66 -75 -80 -162 -88 -103 -9 -163 -48 -207 -135 -7 -12 -15 -64 -19 -115 l-7 -92 -51 105 c-68 141 -131 194 -193 159 -31 -18 -69 -91 -77 -151 -4 -27 -10 -48 -14 -48 -10 0 -22 97 -25 200 -2 99 -9 103 -67 37 -67 -75 -129 -233 -100 -251 12 -7 25 8 61 75 l29 53 1 -140 c0 -162 10 -204 70 -293 52 -77 91 -158 91 -192 0 -28 -37 -67 -87 -93 -80 -40 -112 -4 -97 112 12 97 9 145 -11 175 -17 27 -17 27 8 27 37 0 41 14 16 62 -12 24 -35 75 -49 113 -16 40 -33 70 -41 70 -16 0 -58 -114 -59 -158 0 -38 -19 -31 -44 19 -16 30 -22 63 -24 141 -8 211 49 350 216 524 35 37 60 69 55 72 -5 3 -47 -16 -93 -43z m779 -569 c12 -8 12 -13 -3 -35 -18 -28 -61 -35 -97 -16 -28 15 -24 29 14 45 37 17 66 18 86 6z"/>
 <path d="M1126 659 c-14 -11 -23 -25 -20 -30 4 -6 11 -6 20 2 18 15 18 5 -1 -31 -18 -36 -2 -50 19 -17 20 30 31 83 18 91 -5 3 -21 -4 -36 -15z"/>
 <path d="M1071 579 c-11 -24 -17 -47 -14 -52 7 -12 19 2 36 45 22 53 1 59 -22 7z"/>
 <path d="M1281 486 c-10 -12 -8 -17 8 -25 22 -12 37 0 27 24 -7 19 -20 19 -35 1z"/>
 <path d="M0 51 l0 -51 166 0 c128 0 165 3 162 13 -3 7 -34 15 -84 19 -67 5 -140 26 -226 63 -16 6 -18 1 -18 -44z"/>
 </g>

</svg>